<?xml version="1.0" standalone="no"?>
<!DOCTYPE svg PUBLIC "-//W3C//DTD SVG 20010904//EN"
 "http://www.w3.org/TR/2001/REC-SVG-20010904/DTD/svg10.dtd">
<svg version="1.0" xmlns="http://www.w3.org/2000/svg"
 width="1920.000000pt" height="1920.000000pt" viewBox="0 0 1920.000000 1920.000000"
 preserveAspectRatio="xMidYMid meet">
<metadata>
Created by potrace 1.11, written by Peter Selinger 2001-2013
</metadata>
<g transform="translate(0.000000,1920.000000) scale(0.100000,-0.100000)"
fill="#000000" stroke="none">
<path d="M8918 13975 c-2 -2 -52 -6 -113 -9 -110 -5 -136 -8 -273 -27 -264
-38 -514 -110 -804 -233 -21 -9 -41 -17 -45 -17 -5 0 -12 -4 -18 -9 -5 -4 -50
-29 -99 -55 -92 -49 -103 -55 -208 -118 -65 -39 -218 -147 -260 -182 -13 -11
-43 -36 -68 -55 -142 -111 -355 -334 -491 -515 -202 -267 -364 -577 -463 -882
-34 -108 -80 -277 -91 -342 -3 -19 -7 -37 -9 -40 -2 -3 -7 -31 -10 -61 -3 -30
-10 -82 -16 -115 -29 -173 -33 -627 -6 -760 2 -11 7 -47 12 -80 4 -33 8 -62 9
-65 0 -3 5 -27 10 -55 4 -27 9 -54 11 -60 1 -5 4 -21 7 -35 75 -376 282 -829
531 -1163 137 -183 316 -375 471 -504 134 -112 140 -117 156 -128 9 -5 74 -49
145 -96 188 -126 331 -202 549 -292 102 -42 380 -129 450 -141 17 -3 41 -7 55
-11 56 -13 118 -24 175 -30 33 -4 63 -9 66 -11 29 -17 512 -26 664 -12 372 35
745 140 1069 300 54 26 100 47 100 46 21 -38 337 -470 453 -618 17 -22 695
-932 713 -956 19 -28 161 -217 309 -412 64 -84 121 -161 126 -170 6 -9 13 -19
16 -22 3 -3 39 -50 80 -105 41 -55 77 -104 81 -110 135 -180 220 -249 343
-280 62 -15 72 -16 140 -15 242 1 437 165 491 411 12 56 5 176 -15 239 -27 87
-37 102 -378 558 -163 218 -342 458 -397 532 -56 74 -106 142 -113 150 -7 8
-54 71 -104 140 -51 69 -95 127 -98 130 -3 3 -17 21 -31 40 -13 19 -28 40 -32
45 -5 6 -173 231 -374 500 -201 270 -379 504 -396 521 l-29 31 47 52 c445 483
730 1161 771 1836 11 165 3 512 -11 557 -3 7 -7 36 -10 63 -26 222 -102 507
-199 740 -258 623 -698 1129 -1292 1484 -259 155 -650 302 -950 357 -49 9 -97
17 -105 19 -9 2 -43 6 -75 10 -33 4 -71 9 -85 11 -14 3 -97 7 -185 10 -88 3
-168 7 -177 8 -9 2 -18 2 -20 1z"/>
<path d="M11445 13936 c-243 -58 -360 -318 -243 -539 39 -73 93 -121 177 -160
150 -68 331 -22 435 110 130 165 97 405 -72 527 -82 60 -202 85 -297 62z m183
-150 c58 -30 85 -58 112 -118 41 -94 23 -186 -53 -262 -109 -109 -293 -79
-369 60 -67 120 -5 284 124 331 57 20 133 16 186 -11z"/>
<path d="M5939 7155 c-1 -16 -1 -327 0 -355 1 -24 4 -25 58 -25 l58 0 0 -437
0 -438 -25 -1 c-14 -1 -40 -1 -57 -1 -25 1 -33 -3 -34 -16 -1 -28 -1 -325 0
-349 l1 -22 441 0 441 1 38 36 c20 20 74 71 117 113 l80 76 0 596 0 596 -119
118 -118 118 -440 0 c-286 0 -440 -3 -441 -10z m731 -404 c1 -36 1 -779 1
-817 l-1 -31 -115 0 -115 0 0 432 c0 237 2 434 5 437 3 3 55 5 115 5 l110 1 0
-27z"/>
<path d="M7195 7150 c-1 -3 -3 -89 -3 -192 l0 -188 31 -1 c18 -1 44 -1 58 -1
l26 0 1 -486 c0 -268 1 -505 1 -528 1 -38 5 -43 89 -111 48 -39 102 -84 121
-101 l34 -30 313 0 c308 0 312 0 331 21 11 12 63 62 116 111 l97 89 0 519 0
519 48 -1 c26 -1 53 -1 60 -1 9 1 12 47 12 194 l0 192 -310 0 -310 0 -1 -30
c-2 -129 0 -347 4 -351 3 -3 28 -5 56 -6 l51 0 1 -36 c4 -152 0 -824 -4 -828
-8 -8 -300 -9 -313 -2 -6 4 -9 169 -9 435 l0 428 50 2 c28 1 55 2 60 2 8 1 13
316 6 376 -1 10 -610 15 -616 5z"/>
<path d="M10555 6543 c-3 -21 -5 -114 -4 -208 2 -154 1 -176 -20 -240 -13 -38
-27 -74 -32 -79 -5 -6 -9 -16 -9 -23 0 -22 -71 -174 -108 -231 -60 -92 -141
-126 -170 -72 -17 33 -8 117 20 184 39 92 152 242 213 282 l25 16 -7 -33 c-5
-28 -4 -31 11 -26 10 4 19 7 22 7 9 0 44 82 44 104 0 19 -7 27 -25 32 -42 10
-85 -16 -170 -101 -136 -135 -217 -294 -218 -425 0 -92 38 -158 94 -163 109
-8 189 77 287 306 23 54 42 102 42 107 0 5 4 11 8 14 5 3 7 -75 5 -172 -2 -97
-1 -187 2 -199 6 -27 31 -30 64 -7 21 15 22 21 16 73 -13 96 -16 205 -18 541
-1 179 -6 331 -10 338 -5 6 -19 12 -32 12 -19 0 -24 -7 -30 -37z"/>
<path d="M11172 6563 c-3 -10 -6 -103 -5 -208 1 -185 1 -191 -29 -279 -92
-275 -195 -427 -279 -411 -36 7 -43 24 -39 100 4 89 84 237 184 339 68 70 92
83 76 41 -20 -53 27 -39 56 18 43 82 11 120 -70 82 -73 -35 -207 -189 -266
-305 -71 -141 -78 -277 -18 -339 31 -31 41 -35 91 -32 85 4 166 103 251 306
20 50 41 99 46 110 6 13 9 -42 9 -155 -1 -246 -3 -230 26 -230 26 0 69 35 61
49 -19 30 -33 560 -22 824 2 58 -1 82 -11 93 -20 19 -52 18 -61 -3z"/>
<path d="M8950 6425 c-147 -29 -360 -104 -415 -147 -54 -42 -14 -92 46 -57 45
25 118 59 149 69 l25 7 1 -146 c0 -80 4 -217 8 -305 6 -113 4 -177 -4 -223
-14 -71 -8 -83 36 -83 38 0 48 48 47 232 l0 137 91 37 c177 71 218 83 286 83
36 0 72 -5 81 -12 16 -12 18 -45 5 -85 -9 -28 -85 -123 -136 -170 -49 -46
-161 -120 -191 -126 -95 -18 -144 -69 -105 -109 60 -59 397 192 492 367 35 65
38 135 6 169 -31 32 -88 50 -149 46 -32 -3 -49 0 -45 6 3 6 20 30 37 55 46 66
60 112 56 182 -1 21 -37 56 -71 70 -37 16 -175 17 -250 3z m218 -74 c50 -27
17 -139 -61 -211 -18 -15 -43 -38 -56 -49 -27 -23 -153 -86 -193 -96 -26 -7
-28 -5 -29 26 -5 134 -4 211 4 256 l8 52 72 15 c120 26 215 28 255 7z"/>
<path d="M9922 6221 c-6 -3 -16 -29 -22 -56 -18 -74 -103 -247 -176 -357 -68
-103 -117 -149 -137 -129 -12 12 -14 164 -3 246 9 61 42 167 70 220 30 56 13
87 -35 64 -17 -9 -61 -94 -73 -144 -32 -127 -43 -220 -40 -326 4 -132 27 -173
91 -161 23 4 123 96 123 112 0 5 6 15 13 22 24 25 96 143 137 226 23 45 42 82
43 82 1 0 3 -59 4 -130 4 -235 39 -343 107 -326 33 8 39 43 15 83 -38 61 -42
96 -54 433 -1 52 -3 102 -4 111 -1 18 -43 40 -59 30z"/>
<path d="M11756 6205 c-9 -9 -16 -28 -16 -43 -2 -128 -44 -251 -116 -339 -42
-51 -76 -63 -104 -38 -34 31 -80 181 -97 315 -7 61 -20 82 -46 78 -20 -3 -22
-9 -21 -68 1 -82 10 -135 41 -235 32 -102 56 -148 89 -174 50 -40 119 -9 187
83 l38 51 -6 -53 c-3 -29 -10 -85 -15 -125 -11 -90 -6 -283 9 -320 9 -24 15
-28 42 -23 52 8 63 25 43 72 -25 56 -24 272 1 439 2 17 7 57 10 90 3 33 7 74
10 90 23 140 24 160 6 184 -22 32 -35 36 -55 16z"/>
</g>
</svg>
